<svg width="10" height="10" xmlns="http://www.w3.org/2000/svg" xmlns:xlink="http://www.w3.org/1999/xlink">
    <defs>
        <path d="M4.334.034a.343.343 0 0 1 .168.168l.587 1.273v6.003l-.731-.41a.343.343 0 0 0-.336 0L1.976 8.217a.343.343 0 0 1-.506-.36l.431-2.394a.343.343 0 0 0-.098-.306L.083 3.473a.343.343 0 0 1 .194-.585l2.332-.316a.343.343 0 0 0 .265-.196L3.878.202a.343.343 0 0 1 .456-.168z" id="a"/>
    </defs>
    <g transform="translate(-174 -12)" fill="none" fill-rule="evenodd">
        <rect stroke="#4876EF" fill="#FFF" width="242" height="34" rx="17"/>
        <path d="m178.986 19.542-2.046 1.147a.343.343 0 0 1-.506-.36l.431-2.394a.343.343 0 0 0-.098-.306l-1.72-1.683a.343.343 0 0 1 .194-.585l2.332-.316a.343.343 0 0 0 .265-.196l1.004-2.174a.343.343 0 0 1 .624 0l1.003 2.174c.05.106.15.18.266.196l2.331.316a.343.343 0 0 1 .194.585l-1.72 1.683a.343.343 0 0 0-.098.306l.431 2.394a.343.343 0 0 1-.506.36l-2.045-1.147a.343.343 0 0 0-.336 0z" fill="#E0E2E5"/>
        <use fill="#5D8AFF" xlink:href="#a" transform="translate(174.964 12.473)"/>
    </g>
</svg>
