<svg width="24" height="24" xmlns="http://www.w3.org/2000/svg" xmlns:xlink="http://www.w3.org/1999/xlink">
    <defs>
        <path id="a" d="M0 0h24v24H0z"/>
    </defs>
    <g fill="none" fill-rule="evenodd">
        <g>
            <mask id="b" fill="#fff">
                <use xlink:href="#a"/>
            </mask>
            <path d="M14.4 21.936C8.92 23.259 3.387 19.879 2.064 14.4.74 8.92 4.12 3.387 9.6 2.064 15.079.74 20.614 4.12 21.937 9.6c1.323 5.478-2.059 11.012-7.537 12.335m8.607-13.943a2.015 2.015 0 0 1-.829-1.788 2.018 2.018 0 0 0-1.543-2.118 2.02 2.02 0 0 1-1.449-1.336 2.019 2.019 0 0 0-2.236-1.367A2.018 2.018 0 0 1 15.1.705 2.018 2.018 0 0 0 12.51.3a2.018 2.018 0 0 1-1.969.08 2.013 2.013 0 0 0-2.546.615 2.017 2.017 0 0 1-1.79.827 2.017 2.017 0 0 0-2.118 1.544 2.023 2.023 0 0 1-1.336 1.449A2.019 2.019 0 0 0 1.385 7.05a2.016 2.016 0 0 1-.68 1.85 2.02 2.02 0 0 0-.407 2.589 2.013 2.013 0 0 1 .08 1.97 2.02 2.02 0 0 0 .616 2.547c.568.411.882 1.09.827 1.79a2.02 2.02 0 0 0 1.544 2.117 2.016 2.016 0 0 1 1.45 1.336 2.018 2.018 0 0 0 2.235 1.367 2.02 2.02 0 0 1 1.851.679 2.017 2.017 0 0 0 2.589.406 2.017 2.017 0 0 1 1.97-.08c.442.225.933.271 1.386.162.454-.11.87-.375 1.16-.777a2.018 2.018 0 0 1 1.79-.828 2.018 2.018 0 0 0 2.118-1.543 2.017 2.017 0 0 1 1.336-1.449 2.016 2.016 0 0 0 1.366-2.237 2.015 2.015 0 0 1 .679-1.85 2.018 2.018 0 0 0 .406-2.588 2.015 2.015 0 0 1-.079-1.97 2.02 2.02 0 0 0-.615-2.548" fill="#1270FF" mask="url(#b)"/>
        </g>
        <path d="m15.353 12.594.508-.124a.596.596 0 0 1 .702.373l.007.02.007.022.005.021.013.05a.5.5 0 0 1-.123.463l-.017.016-.011.011.345.473c.073.1.03.238-.08.282l-.013.005-.013.004a.187.187 0 0 1-.174-.048l-.011-.011-.01-.013-.394-.544-.334.082.132.538a.185.185 0 0 1-.108.213l-.014.006-.014.004a.185.185 0 0 1-.213-.107l-.006-.014-.004-.015-.35-1.428a.23.23 0 0 1 .14-.269l.014-.005.016-.005zm-3.587.878a.051.051 0 0 1 .06.029l.729.886.24-1.132a.051.051 0 0 1 .022-.037l.008-.004.009-.003.154-.038a.16.16 0 0 1 .184.09l.005.014.004.014.367 1.497a.184.184 0 0 1-.35.116l-.005-.014-.004-.015-.186-.76-.12.536a.284.284 0 0 1-.155.195l-.017.007-.018.007-.019.005-.004.001a.284.284 0 0 1-.258-.065l-.014-.013-.013-.015-.35-.416.185.756a.184.184 0 0 1-.107.213l-.014.006-.014.004a.185.185 0 0 1-.214-.107l-.005-.014-.004-.015-.358-1.459a.2.2 0 0 1 .117-.23l.014-.006.015-.004.116-.029zm2.417-.591a.256.256 0 0 1 .253.079l.011.014.01.015.854 1.297c.066.1.023.233-.086.278l-.013.005-.016.005-.016.003a.189.189 0 0 1-.166-.06l-.01-.011-.01-.013-.364-.561-.453.11-.063.667a.19.19 0 0 1-.115.155l-.013.005-.016.005a.189.189 0 0 1-.233-.174v-.028l.158-1.546a.256.256 0 0 1 .16-.211l.016-.006.018-.005.094-.023zm3.532-.865a.189.189 0 0 1 .221.25l-.005.013-.007.013-.335.588.714.633c.1.088.075.246-.04.305l-.012.005-.013.005-.018.005a.187.187 0 0 1-.141-.021l-.014-.01-.014-.01-.651-.583-.11.192.109.444a.184.184 0 0 1-.108.213l-.014.006-.014.004a.185.185 0 0 1-.213-.107l-.005-.014-.005-.015-.36-1.473a.185.185 0 0 1 .348-.117l.006.015.004.014.124.504.433-.769a.19.19 0 0 1 .087-.08l.016-.005.017-.005zm-1.767.807-.375.092.1.408.467-.114a.138.138 0 0 0 .105-.141l-.001-.013-.003-.012-.012-.05a.232.232 0 0 0-.266-.173l-.015.003zm-1.703.516-.03.314.202-.05-.172-.264zm-3.73.44a.184.184 0 0 1 .212.106l.006.014.005.017.002.016a.184.184 0 0 1-.108.195l-.015.006-.014.004-.664.162.093.379.495-.122a.184.184 0 0 1 .213.108l.005.014.004.014a.184.184 0 0 1-.106.213l-.014.006-.014.004-.495.121.092.378.664-.162a.184.184 0 0 1 .213.107l.005.014.004.014a.185.185 0 0 1-.106.213l-.014.006-.015.004-.767.188a.26.26 0 0 1-.305-.16l-.005-.016-.005-.016-.329-1.343a.242.242 0 0 1 .146-.282l.015-.005.016-.005.786-.192zm-1.393.34a.184.184 0 0 1 .212.108l.006.014.004.014.36 1.473a.184.184 0 0 1-.134.223.184.184 0 0 1-.212-.106l-.005-.015-.005-.014-.136-.558-.69.17.137.556a.184.184 0 0 1-.107.214l-.013.005-.014.004a.184.184 0 0 1-.213-.106l-.005-.015-.004-.014-.361-1.473a.184.184 0 0 1 .347-.116l.005.014.004.014.137.558.689-.17-.137-.556a.184.184 0 0 1 .107-.214l.014-.005.014-.004zm-1.597.392a.184.184 0 0 1 .116.348l-.014.006-.014.004-.327.08.317 1.294a.184.184 0 0 1-.107.214l-.014.005-.014.004a.184.184 0 0 1-.212-.107l-.005-.014-.005-.015-.317-1.294-.326.08a.184.184 0 0 1-.213-.107l-.005-.014-.005-.014a.185.185 0 0 1 .106-.213l.014-.006.015-.004 1.01-.247zm3.514-6.357a1.843 1.843 0 0 1 2.226 1.35l.435 1.779a.71.71 0 0 1-.79.874l-.07-.01-.586-.348a78.67 78.67 0 0 1-.636.145l-3.851.944a1.843 1.843 0 0 1-2.226-1.35l-.033-.135a1.843 1.843 0 0 1 1.35-2.225l4.181-1.024zm5.32 1.199-.399-1.628a.39.39 0 0 1 .287-.472.39.39 0 0 1 .473.286l.637 2.604a.39.39 0 0 1-.597.419L14.57 9.1l.4 1.628a.391.391 0 1 1-.76.186l-.638-2.604a.391.391 0 0 1 .597-.419l2.19 1.462zm-9.334.504c-.612.15-.987.769-.838 1.38l.033.135c.15.61.77.987 1.38.837l3.935-.96.332-.078c.425-.099.425-.099.492-.09l.07.01.57.337-.413-1.757a1.143 1.143 0 0 0-1.38-.838L7.025 9.857zm2.65.589a.314.314 0 1 1-.61.15.314.314 0 0 1 .61-.15zm-1.31.32a.314.314 0 1 1-.61.15.314.314 0 0 1 .61-.15zm2.621-.641a.314.314 0 1 1-.61.15.314.314 0 0 1 .61-.15zm5.407 7.09-.134.64-.411-.507-.65.07.355-.549-.266-.596.63.168.485-.438.035.653.566.326-.61.234zm-2.418.956-.19.9-.58-.714-.914.097.5-.772-.375-.84.888.236.683-.616.05.92.797.458-.859.33zm-2.81.308-.134.64-.413-.508-.65.07.356-.549-.267-.596.632.168.484-.438.035.653.566.326-.609.234zm-3.47-11.97.136-.64.41.507.65-.069-.355.547.267.597-.631-.168-.485.438-.036-.653-.565-.325.609-.235zm2.418-.956.19-.9.58.714.915-.097-.5.773.376.84-.89-.237-.682.616-.05-.918-.797-.46.858-.33zm2.812-.308.134-.638.411.506.65-.068-.355.547.266.596-.63-.168-.485.437-.035-.652-.565-.325.609-.235zM2.758 14.233c1.23 5.095 6.378 8.24 11.474 7.009 5.096-1.23 8.242-6.378 7.011-11.474-1.23-5.097-6.38-8.241-11.475-7.01-5.096 1.23-8.241 6.378-7.01 11.475z" fill="#1270FF"/>
    </g>
</svg>
