<svg xmlns="http://www.w3.org/2000/svg" width="34" height="14" viewBox="0 0 34 14">
    <g fill="none" fill-rule="evenodd">
        <g>
            <g>
                <g>
                    <g transform="translate(-415.000000, -99.000000) translate(0.000000, 90.000000) translate(339.000000, 6.000000) translate(76.000000, 3.000000)">
                        <rect width="34" height="14" fill="#F58F00" rx="7"/>
                        <path fill="#FFF" fill-rule="nonzero" d="M9.388 10.965c.641 0 1.164-.262 1.568-.786.351-.455.527-.979.527-1.572 0-.717-.298-1.26-.893-1.63.519-.278.921-.609 1.208-.994.286-.386.429-.833.429-1.341 0-.47-.132-.862-.395-1.174-.263-.312-.59-.468-.979-.468-.625 0-1.217.335-1.774 1.006-.32.385-.637.91-.95 1.572v-.543c0-.417-.034-.798-.1-1.145-.068-.347-.194-.643-.38-.89-.13.023-.298.086-.504.191-.206.105-.31.176-.31.214.008.023.012.038.012.046.008.038.02.07.034.092.145.247.252.54.32.879.07.34.104.705.104 1.098 0 .501-.061 1.012-.183 1.532s-.34 1.183-.653 1.988C6.156 9.846 6 10.391 6 10.676c0 .116.027.193.08.232.054.038.164.057.332.057.19 0 .313-.01.366-.029.054-.019.11-.082.166-.19.058-.108.134-.305.23-.59.095-.285.196-.647.303-1.087.42-1.564.93-2.84 1.533-3.826.58-.94 1.118-1.41 1.614-1.41.206 0 .367.08.481.242.115.162.172.382.172.66 0 .485-.187.928-.561 1.329-.29.27-.725.443-1.305.52-.374.046-.56.266-.56.659 0 .092.032.152.096.179.065.027.166.04.304.04.107 0 .221-.011.343-.034.122-.023.21-.043.263-.058.214.177.367.372.458.584.092.212.138.46.138.745 0 .378-.088.72-.264 1.024-.175.304-.374.456-.595.456-.114 0-.244-.058-.389-.173-.298-.231-.496-.347-.595-.347-.13 0-.237.112-.32.335-.024.07-.05.181-.08.335 0 .162.121.309.365.44.245.13.516.196.813.196zm5.067.035c1.107 0 2.247-.428 3.423-1.283v-.971c-.603.531-1.137.915-1.603 1.15-.465.235-.927.353-1.385.353-.267 0-.462-.12-.584-.359-.084-.162-.126-.374-.126-.636v-.046l.24-.104c.634-.262 1.092-.497 1.374-.705.534-.393.802-.852.802-1.376 0-.586-.306-.878-.916-.878-.649 0-1.221.325-1.717.976-.496.652-.744 1.397-.744 2.237 0 .424.105.804.315 1.14.21.334.517.502.921.502zm-.16-2.555c.091-.424.267-.792.526-1.104.26-.312.515-.468.767-.468.176 0 .264.085.264.254 0 .231-.142.465-.424.7-.282.235-.66.44-1.133.618zm5.273 2.52c.221 0 .484-.073.79-.22.435-.21.904-.55 1.408-1.023v-.988c-.428.451-.82.8-1.18 1.05-.29.202-.495.303-.618.303-.228 0-.343-.334-.343-1.002 0-.233.027-.503.08-.81.054-.306.134-.658.24-1.054l.058-.198h1.167l.138-.67-1.054.003.805-2.488h-.963l-.849 2.577c-.13.022-.246.045-.349.067-.103.022-.158.063-.166.122l-.046.447.355-.058-.091.349c-.145.527-.237.9-.275 1.116-.038.217-.057.485-.057.803 0 .504.086.909.257 1.215.172.306.403.46.693.46zm6.349-.011c.503 0 1.198-.41 2.083-1.23v-.978c-.374.397-.7.708-.979.933-.278.226-.479.338-.6.338-.092 0-.138-.072-.138-.217 0-.084.02-.235.057-.453.038-.218.084-.422.138-.613l.595-2.44h-.95l-.195.73c-.168-.255-.345-.44-.532-.556-.187-.115-.395-.173-.624-.173-.565 0-1.087.281-1.568.844-.519.609-.778 1.33-.778 2.162 0 .447.127.834.383 1.161.256.328.555.492.899.492.229 0 .463-.081.704-.243.24-.162.543-.447.91-.856v.195c0 .244.04.456.12.635.08.18.238.269.475.269zm-1.9-.786c-.175 0-.316-.102-.424-.307-.107-.204-.16-.472-.16-.803 0-.524.147-.996.44-1.416.294-.42.624-.63.99-.63.138 0 .268.05.39.15.084.07.256.258.515.566l-.259 1.157c-.221.262-.443.52-.665.774-.321.34-.597.509-.826.509z"/>
                    </g>
                </g>
            </g>
        </g>
    </g>
</svg>
