<svg xmlns="http://www.w3.org/2000/svg" width="16" height="16" viewBox="0 0 16 16">
    <g fill="none" fill-rule="evenodd">
        <g fill-rule="nonzero">
            <g>
                <g>
                    <path stroke="#4E6783" stroke-width="1.333" d="M4.112 4.391C4.535 2.637 6.115 1.333 8 1.333c2.21 0 4 1.791 4 4v1.334h.667C13.403 6.667 14 7.264 14 8v5.333c0 .737-.597 1.334-1.333 1.334H3.333C2.597 14.667 2 14.07 2 13.333V8c0-.733.6-1.333 1.333-1.333H4m2-1.334v1.334h4V5.333c0-1.104-.895-2-2-2s-2 .896-2 2z" transform="translate(-1026.000000, -98.000000) translate(0.000000, 90.000000) translate(1026.000000, 8.000000)"/>
                    <path fill="#3E72FA" d="M7.333 11.153v1.514h1.334v-1.514c.522-.301.777-.917.62-1.5-.155-.582-.684-.988-1.287-.988-.603 0-1.132.406-1.288.989-.156.582.099 1.198.621 1.5z" transform="translate(-1026.000000, -98.000000) translate(0.000000, 90.000000) translate(1026.000000, 8.000000)"/>
                </g>
            </g>
        </g>
    </g>
</svg>
