<svg xmlns="http://www.w3.org/2000/svg" width="16" height="16" viewBox="0 0 16 16">
    <g fill="none" fill-rule="evenodd">
        <g fill-rule="nonzero">
            <g>
                <g>
                    <path stroke="#4E6783" stroke-width="1.333" d="M7.2 4.067c0-1.326 1.075-2.4 2.4-2.4S12 2.74 12 4.067v1.6c0 1.325-1.075 2.4-2.4 2.4s-2.4-1.075-2.4-2.4m8.133 7.045c-1.945-1.125-3.486-2.382-5.733-2.379-2.328 0-3.853 1.291-5.733 2.379v1.621m11.18-1.572v1.572" transform="translate(-1106.000000, -98.000000) translate(0.000000, 90.000000) translate(1106.000000, 8.000000)"/>
                    <path fill="#3E72FA" d="M1.6 4.4L0 4.4 0 6 1.6 6 1.6 7.6 3.2 7.6 3.2 6 4.8 6 4.8 4.4 3.2 4.4 3.2 2.8 1.6 2.8z" transform="translate(-1106.000000, -98.000000) translate(0.000000, 90.000000) translate(1106.000000, 8.000000)"/>
                </g>
            </g>
        </g>
    </g>
</svg>
