<svg width="16" height="16" xmlns="http://www.w3.org/2000/svg">
    <g fill="none" fill-rule="evenodd">
        <path d="M2.026 16A2.026 2.026 0 0 1 0 13.974V2.026C0 .907.907 0 2.026 0h11.948C15.093 0 16 .907 16 2.026v11.948A2.026 2.026 0 0 1 13.974 16H2.026z" fill="#4876EF"/>
        <path d="M11.119 4.824a2.67 2.67 0 0 1 2.667 2.667v2.654a1.03 1.03 0 0 1-1.414.957l-.095-.038-.705-.692c-.095 0-.217-.002-.34-.004a18.73 18.73 0 0 1-.605-.01H4.88a2.67 2.67 0 0 1-2.667-2.666V7.49a2.67 2.67 0 0 1 2.667-2.667h6.238zm0 1.013H4.88c-.912 0-1.654.742-1.654 1.654v.2c0 .913.742 1.655 1.654 1.655l5.87.004.493.006c.632.007.632.007.723.043l.097.037.685.672.024-2.615c0-.914-.742-1.656-1.654-1.656zM7.954 7.124a.455.455 0 1 1 0 .91.455.455 0 0 1 0-.91zM6 7.124a.455.455 0 1 1 0 .91.455.455 0 0 1 0-.91zm3.91 0a.455.455 0 1 1 .001.91.455.455 0 0 1 0-.91z" fill="#FFF"/>
    </g>
</svg>
