<svg xmlns="http://www.w3.org/2000/svg" width="81" height="24" viewBox="0 0 81 24">
    <g fill="none" fill-rule="evenodd">
        <g>
            <g>
                <g>
                    <g>
                        <path fill="#4876EF" d="M22.822 3c.835 0 1.337.944.884 1.659l-4.147 6.536 3.295 5.175h-2.59l-2.127-3.487-4.762 7.62c-.193.31-.528.497-.888.497-.836 0-1.338-.945-.885-1.66l5.125-8.07-3.173-5.015h2.625l1.994 3.302 3.76-6.058c.192-.31.528-.499.89-.499zm23.043 3.256c.827 0 1.54.143 2.14.428.6.286 1.058.69 1.374 1.21.316.52.474 1.129.474 1.825 0 .694-.156 1.3-.468 1.818-.312.517-.76.916-1.344 1.197l2.298 3.636h-2.565l-1.92-3.19H44.09v3.19h-2.212V6.256h3.987zm12.406 0c.541 0 .979.447.979.998v.001c0 .552-.438 1-.979 1h-2.243v8.115h-2.211V8.254h-2.243c-.54 0-.98-.447-.98-.999s.44-1 .98-1h6.697zm-46.614 0c.53 0 .96.44.96.98 0 .542-.43.98-.96.98H7.463v2.062h2.755c.53 0 .96.438.96.979 0 .54-.43.98-.96.98H7.463v2.172h4.303c.53 0 .96.44.96.98 0 .541-.43.98-.96.98H5.25V6.257h6.407zm15.986 0c.85 0 1.582.153 2.194.46.612.305 1.08.735 1.404 1.29.325.554.487 1.203.487 1.948 0 .754-.162 1.408-.487 1.967-.324.558-.792.99-1.404 1.297-.612.306-1.343.459-2.194.459H26.05v2.693h-2.212V6.256h3.805zm11.682 0c.531 0 .96.44.96.98 0 .542-.429.98-.96.98h-4.194v2.062h2.756c.53 0 .96.438.96.979 0 .54-.43.98-.96.98H35.13v2.172h4.304c.53 0 .96.44.96.98 0 .541-.43.98-.96.98h-6.516V6.257h6.406zm-11.78 1.998h-1.054c-.243 0-.44.202-.44.45v2.525c0 .25.197.45.44.45h1.055c.624 0 1.108-.149 1.452-.447.345-.298.517-.724.517-1.278s-.172-.976-.517-1.266c-.344-.29-.828-.434-1.452-.434zm18.223 0h-1.18c-.275 0-.498.228-.498.508v1.913c0 .28.223.508.498.508h1.18c.592 0 1.052-.126 1.38-.379.328-.252.492-.615.492-1.085 0-.472-.164-.834-.492-1.087-.328-.252-.788-.378-1.38-.378z" transform="translate(-351.000000, -142.000000) translate(0.000000, 90.000000) translate(188.000000, 52.000000) translate(163.000000, 0.000000)"/>
                        <path fill="#2C3F53" fill-rule="nonzero" d="M74.42 7.238V5.942h-4.05V5h-1.74v.942h-4.102v1.296h9.892zm.58 5.64v-1.335h-4.63v-.602c2.071-.118 3.206-.68 3.206-1.688 0-1.152-1.372-1.714-4.076-1.714-2.704 0-4.062.576-4.062 1.714 0 1.008 1.12 1.57 3.191 1.688v.602H64v1.335h11zm-5.5-3.062c-1.543 0-2.203-.157-2.203-.563 0-.406.66-.55 2.203-.55 1.543 0 2.203.144 2.203.55s-.66.563-2.203.563zM73.681 17v-3.494h-8.388V17h8.388zm-1.715-1.27h-4.972v-.955h4.972v.956z" transform="translate(-351.000000, -142.000000) translate(0.000000, 90.000000) translate(188.000000, 52.000000) translate(163.000000, 0.000000)"/>
                    </g>
                </g>
            </g>
        </g>
    </g>
</svg>
