<svg xmlns="http://www.w3.org/2000/svg" xmlns:xlink="http://www.w3.org/1999/xlink" width="130" height="16" viewBox="0 0 130 16">
    <defs>
        <path id="mndc7tfhga" d="M0 0L42.924 0 42.924 16 0 16z"/>
    </defs>
    <g fill="none" fill-rule="evenodd">
        <g>
            <g>
                <g>
                    <g>
                        <g transform="translate(-188.000000, -146.000000) translate(0.000000, 90.000000) translate(188.000000, 52.000000) translate(0.000000, 4.000000)">
                            <mask id="yzgfw4b2sb" fill="#fff">
                                <use xlink:href="#mndc7tfhga"/>
                            </mask>
                            <path fill="#4876EF" d="M22.337 0c3.69 0 6.69 3.014 6.69 6.718v6.685c0 .863-.423 1.666-1.136 2.15-.435.295-.94.447-1.449.447-.324 0-.652-.061-.962-.187l-.237-.095-1.77-1.742c-.239-.003-.543-.006-.852-.011-.803-.009-1.247-.014-1.518-.028l-14.413.005C3 13.942 0 10.928 0 7.224v-.506C0 3.014 3 0 6.69 0h15.647zm11.278 1.786l6.466 7.08V2.752c0-.791.636-1.426 1.422-1.426.786 0 1.421.635 1.421 1.426v9.786c0 .588-.36 1.114-.906 1.33-.167.063-.342.098-.515.098-.39 0-.774-.163-1.048-.463L33.987 6.42v6.119c0 .787-.635 1.428-1.42 1.428-.786 0-1.423-.64-1.423-1.428V2.752c0-.589.36-1.117.906-1.331.546-.212 1.167-.072 1.565.365zm-11.278.765H6.69c-2.288 0-4.15 1.87-4.15 4.167v.506c0 2.297 1.862 4.166 4.15 4.166l14.723.01 1.238.015c1.585.017 1.585.017 1.814.108l.243.095 1.718 1.691.062-6.587c0-2.301-1.863-4.17-4.151-4.17zm-7.938 3.243c.63 0 1.142.513 1.142 1.147 0 .632-.512 1.146-1.142 1.146-.631 0-1.142-.514-1.142-1.146 0-.634.51-1.147 1.142-1.147zm-4.906 0c.631 0 1.142.513 1.142 1.147 0 .632-.51 1.146-1.142 1.146-.63 0-1.141-.514-1.141-1.146 0-.634.51-1.147 1.141-1.147zm9.81 0c.632 0 1.143.513 1.143 1.147 0 .632-.51 1.146-1.142 1.146-.63 0-1.14-.514-1.14-1.146 0-.634.51-1.147 1.14-1.147z" mask="url(#yzgfw4b2sb)"/>
                        </g>
                        <path fill="#464646" d="M77.433 1.405c.617 0 1.135.448 1.241 1.062l.014.103.004.122-.006.105c-.053.57-.478 1.029-1.041 1.13l-.107.014-.105.005h-4.686V6.63h3.497c.628 0 1.148.464 1.244 1.07l.012.103.003.1c0 .62-.444 1.144-1.052 1.251l-.103.014-.104.005h-3.497v2.682h4.686c.628 0 1.148.464 1.244 1.07l.011.102.004.099c0 .621-.444 1.146-1.051 1.253l-.103.014-.105.004h-5.422c-.9 0-1.65-.675-1.768-1.57l-.011-.114-.004-.115V3.07c0-.838.613-1.537 1.433-1.65l.107-.013.11-.003h5.555zm-9.841 0c.617 0 1.134.448 1.24 1.062l.014.103.005.105v10.45c0 .701-.563 1.271-1.26 1.271-.616 0-1.135-.449-1.24-1.062l-.014-.104-.004-.105-.001-3.953h-4.867v3.953c0 .632-.459 1.159-1.06 1.255l-.101.013-.099.003c-.616 0-1.135-.449-1.24-1.062l-.014-.104-.005-.105V2.675c0-.7.563-1.27 1.26-1.27.616 0 1.134.448 1.24 1.062l.014.103.005.105V6.63h4.867V2.675c0-.632.459-1.158 1.06-1.255l.101-.012.099-.003zm-11.282 0c.696 0 1.26.57 1.26 1.27 0 .622-.444 1.145-1.053 1.252l-.103.014-.104.005H54v9.179c0 .632-.458 1.159-1.059 1.255l-.1.013-.1.003c-.616 0-1.135-.449-1.24-1.062l-.014-.104-.005-.105V3.946h-2.308c-.628 0-1.148-.464-1.244-1.069l-.012-.102-.003-.1c0-.62.443-1.144 1.052-1.251l.102-.014.105-.005h7.135z" transform="translate(-188.000000, -146.000000) translate(0.000000, 90.000000) translate(188.000000, 52.000000) translate(0.000000, 4.000000)"/>
                        <path fill="#4876EF" d="M111.607 1.405h3.593c2.1 0 3.84 1.589 4.07 3.649l.013.151.009.15.002.154v.353c0 1.188-.606 2.267-1.575 2.896l-.135.083-.095.054 1.532 3.73c.322.784-.189 1.64-.993 1.758l-.094.01-.096.004c-.438 0-.843-.225-1.083-.602l-.057-.097-.046-.101-1.736-4.285h-2.36v3.813c0 .633-.461 1.159-1.066 1.256l-.102.012-.099.004c-.62 0-1.142-.45-1.248-1.063l-.014-.104-.005-.105V2.994c0-.796.585-1.46 1.366-1.573l.108-.012.11-.004zm-25.334 0c.171 0 .315.125.345.288v.008l3.416 7.12 3.452-7.186c.036-.096.112-.172.207-.208l.059-.016.063-.006H94.9c.53 0 .977.377 1.08.902l.015.1.005.1v10.619c0 .702-.568 1.27-1.267 1.27-.62 0-1.142-.448-1.25-1.061l-.013-.104-.005-.105V7.73l-1.671 3.395c-.267.542-.766.925-1.355 1.047l-.127.022-.13.014-.133.006h-.03c-.646 0-1.246-.323-1.611-.861l-.07-.11-.065-.12-1.65-3.36v5.363c0 .633-.463 1.158-1.066 1.255l-.102.012-.1.003c-.62 0-1.142-.448-1.25-1.061l-.013-.104-.005-.105V2.776c0-.676.489-1.242 1.152-1.353l.107-.014.108-.004h.82zm17.07 0c.654 0 1.25.363 1.557.945l.054.112.046.116 3.57 10.083c.274.773-.227 1.592-1.026 1.719l-.098.012-.116.003-.109-.005c-.422-.04-.796-.287-1.008-.666l-.05-.098-.04-.102-1.513-4.352h-3.198L99.9 13.524c-.159.456-.551.779-1.015.855l-.1.012-.11.005c-.818 0-1.42-.746-1.273-1.544l.022-.097.029-.094 3.57-10.083c.218-.618.76-1.06 1.408-1.155l.123-.014.125-.004h.665zm24.952 0c1.052 0 1.647 1.181 1.07 2.032l-.06.081-.069.078-3.193 3.383 3.73 5.409c.52.756.097 1.772-.761 1.974l-.093.018-.097.012-.13.004c-.335 0-.656-.132-.902-.376l-.079-.084-.073-.097-3.389-4.963-1.043 1.102v3.148c0 .632-.462 1.158-1.067 1.254l-.101.013-.1.003c-.62 0-1.14-.448-1.248-1.061l-.014-.104-.005-.105V2.676c0-.702.568-1.27 1.267-1.27.62 0 1.142.447 1.249 1.06l.014.105.005.105V6.25l4.144-4.435c.19-.203.44-.339.71-.388l.117-.017.118-.005zM115.2 3.911h-2.644v2.896h3.296c.464 0 .852-.335.929-.77l.011-.087.004-.088V5.51c0-.846-.656-1.538-1.486-1.594l-.11-.004zm-12.189.66l-.716 2.058h1.43l-.714-2.057z" transform="translate(-188.000000, -146.000000) translate(0.000000, 90.000000) translate(188.000000, 52.000000) translate(0.000000, 4.000000)"/>
                    </g>
                </g>
            </g>
        </g>
    </g>
</svg>
